<mxfile host="app.diagrams.net" agent="Mozilla/5.0 (Macintosh; Intel Mac OS X 10.15; rv:130.0) Gecko/20100101 Firefox/130.0" version="24.7.17">
  <diagram name="Page-1" id="LPLkAKs8_BfHticTkDAM">
    <mxGraphModel dx="1321" dy="608" grid="1" gridSize="10" guides="1" tooltips="1" connect="1" arrows="1" fold="1" page="1" pageScale="1" pageWidth="850" pageHeight="1100" math="0" shadow="0">
      <root>
        <mxCell id="0" />
        <mxCell id="1" parent="0" />
        <mxCell id="ZYEr07Mm7UDevHIAI5XF-1" value="&lt;font style=&quot;font-size: 11px;&quot;&gt;ScoreGen&lt;/font&gt;" style="shape=umlFrame;whiteSpace=wrap;html=1;pointerEvents=0;" vertex="1" parent="1">
          <mxGeometry x="260" y="110" width="290" height="520" as="geometry" />
        </mxCell>
        <mxCell id="ZYEr07Mm7UDevHIAI5XF-26" style="rounded=0;orthogonalLoop=1;jettySize=auto;html=1;" edge="1" parent="1" source="ZYEr07Mm7UDevHIAI5XF-2" target="ZYEr07Mm7UDevHIAI5XF-24">
          <mxGeometry relative="1" as="geometry" />
        </mxCell>
        <mxCell id="ZYEr07Mm7UDevHIAI5XF-29" value="&lt;font style=&quot;font-size: 10px;&quot;&gt;algorithms&lt;/font&gt;" style="edgeLabel;html=1;align=center;verticalAlign=middle;resizable=0;points=[];" vertex="1" connectable="0" parent="ZYEr07Mm7UDevHIAI5XF-26">
          <mxGeometry x="-0.1853" y="-1" relative="1" as="geometry">
            <mxPoint as="offset" />
          </mxGeometry>
        </mxCell>
        <mxCell id="ZYEr07Mm7UDevHIAI5XF-2" value="&lt;font style=&quot;font-size: 11px;&quot;&gt;Conversion libraries&lt;/font&gt;" style="shape=umlActor;verticalLabelPosition=bottom;verticalAlign=top;html=1;" vertex="1" parent="1">
          <mxGeometry x="650" y="270" width="30" height="60" as="geometry" />
        </mxCell>
        <mxCell id="ZYEr07Mm7UDevHIAI5XF-8" style="rounded=0;orthogonalLoop=1;jettySize=auto;html=1;" edge="1" parent="1" target="ZYEr07Mm7UDevHIAI5XF-7">
          <mxGeometry relative="1" as="geometry">
            <mxPoint x="170" y="210" as="sourcePoint" />
          </mxGeometry>
        </mxCell>
        <mxCell id="ZYEr07Mm7UDevHIAI5XF-9" value="&lt;div&gt;audio input&amp;nbsp;&lt;/div&gt;&lt;div&gt;(analog or digital file)&lt;/div&gt;" style="edgeLabel;html=1;align=center;verticalAlign=middle;resizable=0;points=[];" vertex="1" connectable="0" parent="ZYEr07Mm7UDevHIAI5XF-8">
          <mxGeometry x="-0.2375" y="-2" relative="1" as="geometry">
            <mxPoint x="7" y="-10" as="offset" />
          </mxGeometry>
        </mxCell>
        <mxCell id="ZYEr07Mm7UDevHIAI5XF-18" style="rounded=0;orthogonalLoop=1;jettySize=auto;html=1;entryX=0;entryY=0;entryDx=0;entryDy=0;" edge="1" parent="1" target="ZYEr07Mm7UDevHIAI5XF-17">
          <mxGeometry relative="1" as="geometry">
            <mxPoint x="170" y="230" as="sourcePoint" />
          </mxGeometry>
        </mxCell>
        <mxCell id="ZYEr07Mm7UDevHIAI5XF-19" value="&lt;font style=&quot;font-size: 10px;&quot;&gt;specify format&lt;/font&gt;" style="edgeLabel;html=1;align=center;verticalAlign=middle;resizable=0;points=[];" vertex="1" connectable="0" parent="ZYEr07Mm7UDevHIAI5XF-18">
          <mxGeometry x="-0.5155" y="2" relative="1" as="geometry">
            <mxPoint x="-13" y="-24" as="offset" />
          </mxGeometry>
        </mxCell>
        <mxCell id="ZYEr07Mm7UDevHIAI5XF-3" value="&lt;font style=&quot;font-size: 11px;&quot;&gt;User&lt;/font&gt;" style="shape=umlActor;verticalLabelPosition=bottom;verticalAlign=top;html=1;" vertex="1" parent="1">
          <mxGeometry x="130" y="180" width="30" height="60" as="geometry" />
        </mxCell>
        <mxCell id="ZYEr07Mm7UDevHIAI5XF-7" value="&lt;font style=&quot;font-size: 10px;&quot;&gt;Receive&lt;br&gt; audio signals&lt;/font&gt;" style="ellipse;whiteSpace=wrap;html=1;" vertex="1" parent="1">
          <mxGeometry x="330" y="140" width="100" height="60" as="geometry" />
        </mxCell>
        <mxCell id="ZYEr07Mm7UDevHIAI5XF-10" value="&lt;font style=&quot;font-size: 10px;&quot;&gt;Time to frequency domain conversion&lt;/font&gt;" style="ellipse;whiteSpace=wrap;html=1;" vertex="1" parent="1">
          <mxGeometry x="280" y="260" width="100" height="60" as="geometry" />
        </mxCell>
        <mxCell id="ZYEr07Mm7UDevHIAI5XF-12" value="&lt;font style=&quot;font-size: 10px;&quot;&gt;&amp;lt;&amp;lt;extend&amp;gt;&amp;gt;&lt;/font&gt;" style="endArrow=open;endSize=12;dashed=1;html=1;rounded=0;exitX=0.5;exitY=0;exitDx=0;exitDy=0;entryX=0.5;entryY=1;entryDx=0;entryDy=0;" edge="1" parent="1" source="ZYEr07Mm7UDevHIAI5XF-10" target="ZYEr07Mm7UDevHIAI5XF-7">
          <mxGeometry x="-0.011" width="160" relative="1" as="geometry">
            <mxPoint x="500" y="270" as="sourcePoint" />
            <mxPoint x="340" y="270" as="targetPoint" />
            <mxPoint as="offset" />
          </mxGeometry>
        </mxCell>
        <mxCell id="ZYEr07Mm7UDevHIAI5XF-14" value="&lt;font style=&quot;font-size: 10px;&quot;&gt;Transcribe to &lt;br&gt;music notation&lt;br&gt;&lt;/font&gt;" style="ellipse;whiteSpace=wrap;html=1;" vertex="1" parent="1">
          <mxGeometry x="280" y="400" width="100" height="60" as="geometry" />
        </mxCell>
        <mxCell id="ZYEr07Mm7UDevHIAI5XF-15" value="&lt;font style=&quot;font-size: 10px;&quot;&gt;&amp;lt;&amp;lt;extend&amp;gt;&amp;gt;&lt;/font&gt;" style="endArrow=open;endSize=12;dashed=1;html=1;rounded=0;exitX=0.5;exitY=0;exitDx=0;exitDy=0;entryX=0.5;entryY=1;entryDx=0;entryDy=0;" edge="1" parent="1" source="ZYEr07Mm7UDevHIAI5XF-14" target="ZYEr07Mm7UDevHIAI5XF-10">
          <mxGeometry x="-0.011" width="160" relative="1" as="geometry">
            <mxPoint x="410" y="440" as="sourcePoint" />
            <mxPoint x="390" y="370" as="targetPoint" />
            <mxPoint as="offset" />
          </mxGeometry>
        </mxCell>
        <mxCell id="ZYEr07Mm7UDevHIAI5XF-17" value="&lt;font style=&quot;font-size: 10px;&quot;&gt;Create exportable&lt;br&gt;&lt;/font&gt;" style="ellipse;whiteSpace=wrap;html=1;" vertex="1" parent="1">
          <mxGeometry x="280" y="530" width="100" height="60" as="geometry" />
        </mxCell>
        <mxCell id="ZYEr07Mm7UDevHIAI5XF-21" value="&lt;font style=&quot;font-size: 10px;&quot;&gt;&amp;lt;&amp;lt;extend&amp;gt;&amp;gt;&lt;/font&gt;" style="endArrow=open;endSize=12;dashed=1;html=1;rounded=0;exitX=0.5;exitY=0;exitDx=0;exitDy=0;entryX=0.5;entryY=1;entryDx=0;entryDy=0;" edge="1" parent="1" source="ZYEr07Mm7UDevHIAI5XF-17" target="ZYEr07Mm7UDevHIAI5XF-14">
          <mxGeometry x="-0.011" width="160" relative="1" as="geometry">
            <mxPoint x="359.5" y="550" as="sourcePoint" />
            <mxPoint x="359.5" y="480" as="targetPoint" />
            <mxPoint as="offset" />
          </mxGeometry>
        </mxCell>
        <mxCell id="ZYEr07Mm7UDevHIAI5XF-24" value="&lt;font style=&quot;font-size: 10px;&quot;&gt;Process data&lt;br&gt;&lt;/font&gt;" style="ellipse;whiteSpace=wrap;html=1;" vertex="1" parent="1">
          <mxGeometry x="430" y="340" width="100" height="60" as="geometry" />
        </mxCell>
        <mxCell id="ZYEr07Mm7UDevHIAI5XF-27" value="&lt;font style=&quot;font-size: 10px;&quot;&gt;&amp;lt;&amp;lt;extend&amp;gt;&amp;gt;&lt;/font&gt;" style="endArrow=open;endSize=12;dashed=1;html=1;rounded=0;exitX=0.5;exitY=1;exitDx=0;exitDy=0;entryX=1;entryY=0.5;entryDx=0;entryDy=0;" edge="1" parent="1" source="ZYEr07Mm7UDevHIAI5XF-24" target="ZYEr07Mm7UDevHIAI5XF-14">
          <mxGeometry x="-0.011" width="160" relative="1" as="geometry">
            <mxPoint x="460" y="400" as="sourcePoint" />
            <mxPoint x="450" y="480" as="targetPoint" />
            <mxPoint as="offset" />
          </mxGeometry>
        </mxCell>
        <mxCell id="ZYEr07Mm7UDevHIAI5XF-28" value="&lt;font style=&quot;font-size: 10px;&quot;&gt;&amp;lt;&amp;lt;extend&amp;gt;&amp;gt;&lt;/font&gt;" style="endArrow=open;endSize=12;dashed=1;html=1;rounded=0;exitX=0;exitY=0;exitDx=0;exitDy=0;entryX=1;entryY=1;entryDx=0;entryDy=0;" edge="1" parent="1" source="ZYEr07Mm7UDevHIAI5XF-24" target="ZYEr07Mm7UDevHIAI5XF-10">
          <mxGeometry x="-0.011" width="160" relative="1" as="geometry">
            <mxPoint x="495" y="290" as="sourcePoint" />
            <mxPoint x="410" y="320" as="targetPoint" />
            <mxPoint as="offset" />
          </mxGeometry>
        </mxCell>
      </root>
    </mxGraphModel>
  </diagram>
</mxfile>
